<svg width="178" height="102" viewBox="0 0 178 102" fill="none" xmlns="http://www.w3.org/2000/svg">
<foreignObject x="-9.85184" y="-9.85184" width="197.704" height="121.704"><div xmlns="http://www.w3.org/1999/xhtml" style="backdrop-filter:blur(4.93px);clip-path:url(#bgblur_0_171_962_clip_path);height:100%;width:100%"></div></foreignObject><g data-figma-bg-blur-radius="9.85184">
<g clip-path="url(#clip1_171_962)">
<path fill-rule="evenodd" clip-rule="evenodd" d="M138.509 48.5049C139.219 49.5166 139.29 51.1111 138.537 52.3469C137.865 53.4505 133.841 57.6857 132.532 59.0466C131.397 60.2288 129.865 61.4126 128.358 61.4126H96.7884C92.5218 61.4126 92.2644 59.9708 92.2644 56.7112V43.4886C92.2644 40.1595 93.2502 39.1973 96.1638 39.1973H128.358C129.865 39.1973 131.207 39.9643 132.748 41.5262C134.057 42.8516 137.965 47.7266 138.509 48.5049Z" fill="#6F6C8F"/>
<path fill-rule="evenodd" clip-rule="evenodd" d="M138.509 48.5049C139.219 49.5166 139.29 51.1111 138.537 52.3469C137.865 53.4505 133.841 57.6857 132.532 59.0466C131.397 60.2288 129.865 61.4126 128.358 61.4126H96.7884C92.5218 61.4126 92.2644 59.9708 92.2644 56.7112V43.4886C92.2644 40.1595 93.2502 39.1973 96.1638 39.1973H128.358C129.865 39.1973 131.207 39.9643 132.748 41.5262C134.057 42.8516 137.965 47.7266 138.509 48.5049Z" fill="#6F6C8F"/>
<path fill-rule="evenodd" clip-rule="evenodd" d="M99.4208 44.3105V44.2234C99.4208 43.7983 99.385 43.378 98.6861 43.378H96.0478C95.4346 43.378 95.3959 43.716 95.3959 44.2411V47.7356C96.6801 45.9052 98.1041 45.0548 99.4208 44.3105ZM117.12 56.9372V56.7496H117.122V48.3391C117.122 44.812 115.566 43.0487 112.455 43.049C111.592 43.041 110.745 43.2719 110.007 43.716C109.266 44.1609 108.554 44.7824 107.872 45.5804C107.536 44.7132 107.031 44.0745 106.354 43.6644C105.678 43.2542 104.801 43.0491 103.725 43.049C102.479 43.049 101.031 43.484 100.004 44.3258C99.7742 44.5551 95.3953 47.9902 95.3953 51.5182V56.9027C95.3953 57.074 95.3124 57.7237 96.0428 57.7237H98.7895C99.6433 57.7237 99.56 57.1664 99.56 56.9372V48.2284C100.024 47.6155 100.971 46.1018 102.509 46.1018C103.1 46.1018 103.525 46.301 103.785 46.6994C104.045 47.0978 104.176 47.7657 104.177 48.7033V55.5053H104.174V56.9029C104.174 57.0742 104.091 57.7239 104.821 57.7239H107.533C108.387 57.7239 108.304 57.1666 108.304 56.9374V56.7498H108.307V48.2288C108.804 47.6159 109.793 46.1022 111.256 46.1022C111.857 46.1022 112.291 46.3014 112.557 46.6997C112.823 47.0981 112.956 47.7661 112.956 48.7037V55.5056H112.953V56.9033C112.953 57.0745 112.871 57.7242 113.601 57.7242H116.349C117.203 57.7239 117.12 57.1664 117.12 56.9372ZM132.246 53.5177C131.27 56.1364 128.93 57.5999 126.032 57.5999C121.833 57.5999 119.06 54.7483 119.06 50.4714C119.06 46.2462 121.939 43.1835 125.901 43.1835C129.82 43.1835 132.449 45.9041 132.616 50.2866C132.638 50.8466 132.473 51.3413 131.771 51.3413H122.862C122.915 53.6913 124.052 54.9589 126.059 54.9589C127.283 54.9589 128.008 54.4329 128.639 53.4022C128.914 52.9537 129.476 52.9786 129.476 52.9786H131.771C132.146 52.9784 132.312 53.3432 132.246 53.5174V53.5177ZM125.901 45.9025C124.236 45.9025 123.074 47.0641 122.862 48.9661H128.832C128.673 47.3024 127.775 45.9025 125.901 45.9025Z" fill="#ECECEC"/>
<path fill-rule="evenodd" clip-rule="evenodd" d="M55.3256 39.3178C54.9727 38.7573 54.5149 38.2697 53.9772 37.8816C53.4394 37.5051 52.849 37.2099 52.2246 37.0055C51.5312 36.7804 50.815 36.6321 50.0891 36.5633C49.2585 36.4819 48.4244 36.4426 47.5899 36.4455H40.2766C39.619 36.4455 38.9297 36.8759 38.9297 37.6878V49.5072C39.8561 51.4771 41.6607 53.5684 43.7125 54.5679V52.2238C43.7125 50.9869 44.6471 50.7106 45.0337 50.7106H47.196C50.1746 50.7106 52.448 50.0871 54.0162 48.8403C55.5844 47.5952 56.3684 45.7459 56.3684 43.2921C56.3729 42.5831 56.2903 41.8762 56.1228 41.1872C55.9561 40.5265 55.6871 39.8959 55.3256 39.3178ZM51.0639 45.388C50.8114 45.8248 50.4347 46.1773 49.9816 46.4011C49.4904 46.6346 48.9598 46.7747 48.4171 46.8142C47.826 46.8667 47.2157 46.893 46.586 46.8931H44.5311C44.0284 46.8931 43.7125 46.4853 43.7125 45.8836V41.0513C43.7125 40.5094 44.067 40.282 44.492 40.282H46.586C47.2681 40.282 47.9078 40.3017 48.505 40.3409C49.0425 40.3653 49.5704 40.4924 50.06 40.7151C50.4964 40.9221 50.8576 41.259 51.0937 41.6793C51.3426 42.1115 51.4671 42.7215 51.4672 43.5092C51.4672 44.309 51.3328 44.9353 51.0639 45.388ZM43.7125 55.3318C41.4559 54.4331 39.9431 53.361 38.9297 52.2982V58.0042C38.9297 58.0042 38.8462 58.9347 39.7549 58.9347H42.9456C43.8208 58.9347 43.7129 58.0042 43.7129 58.0042V55.3318H43.7125ZM88.93 42.6633H86.0665C85.4846 42.6633 85.1011 42.9071 84.8703 43.545C84.6395 44.1828 81.6044 52.6079 81.6044 52.6079C81.6044 52.6079 78.701 44.3569 78.4726 43.718C78.2441 43.0791 77.8689 42.6633 77.1929 42.6633H74.5618C73.6336 42.6633 73.6336 43.39 73.7487 43.6781C73.8421 43.911 77.4453 53.7542 78.8176 57.504C79.1412 58.3894 79.269 58.6557 79.279 58.9837C79.289 59.3117 78.9545 60.0003 78.7233 60.3955C78.6171 60.5758 78.4952 60.7465 78.359 60.9056C81.0493 60.1028 84.1502 57.1896 85.7537 54.0336C87.3394 49.6353 89.4304 43.8252 89.521 43.528C89.6669 43.0465 89.6654 42.6633 88.93 42.6633ZM76.2859 61.7426C76.0373 61.7382 75.7892 61.7204 75.5426 61.6891C75.2408 61.6492 74.676 61.7054 74.676 62.1984V64.402C74.676 65.243 75.0794 65.2991 75.3015 65.3489C75.9697 65.4877 76.6511 65.5534 77.3337 65.5447C78.2383 65.5447 79.0254 65.3806 79.6951 65.0526C80.3712 64.7191 80.9738 64.2542 81.4672 63.6853C82.0112 63.0519 82.4709 62.3511 82.835 61.6003C83.2347 60.7937 83.6184 59.9051 83.9862 58.9345C83.9862 58.9345 84.1438 58.4959 84.4035 57.7774C83.6136 58.5721 79.8908 62.0905 76.2859 61.7426ZM71.9857 45.2792C71.8303 44.9109 71.618 44.5691 71.3566 44.2662C71.0962 43.9754 70.7981 43.7206 70.4701 43.5084C70.1161 43.279 69.7407 43.0846 69.349 42.9279C68.949 42.7722 68.5377 42.6474 68.1185 42.5545C67.642 42.4505 67.1585 42.3815 66.672 42.348C66.1465 42.309 65.5558 42.2893 64.9 42.289C60.5621 42.289 58.092 43.6555 57.4897 46.3884C57.2939 47.2365 58.1356 47.2863 58.1356 47.2863H60.8042C61.5008 47.2863 61.4709 47.0625 61.809 46.4346C61.9307 46.093 62.1498 45.7941 62.4395 45.5747C62.9516 45.1814 63.7192 44.9848 64.7424 44.9847C65.7267 44.9847 66.4418 45.1747 66.8879 45.5547C67.3338 45.9347 67.5962 46.5118 67.6752 47.2863C67.6752 48.1843 67.3942 48.7835 66.305 48.7835C63.6496 48.6874 60.7961 48.9868 59.189 49.9051C57.5818 50.8235 56.6733 52.6189 56.6733 54.5471C56.6733 55.3335 56.8143 56.0221 57.0966 56.613C57.37 57.1922 57.7743 57.7006 58.2777 58.0981C58.8119 58.5134 59.4242 58.8178 60.0784 58.9934C60.822 59.1966 61.5902 59.2962 62.3612 59.2891C63.5161 59.2891 64.5365 59.1448 65.4223 58.8561C66.308 58.5679 67.6784 57.6177 67.853 57.479V57.9856C67.853 58.4875 68.0062 58.9352 68.6072 58.9352H71.7104C72.3385 58.9352 72.4782 58.4875 72.4782 57.9366V48.4082C72.4836 47.8158 72.4442 47.224 72.3603 46.6376C72.2937 46.1708 72.1678 45.7143 71.9857 45.2792ZM67.7541 54.6215C67.7541 54.6215 66.9528 56.2805 64.0929 56.2805C63.306 56.2805 62.6664 56.1035 62.1739 55.7495C61.6814 55.3956 61.4353 54.8446 61.4356 54.0967C61.4356 53.1254 61.8359 52.4397 62.6367 52.0398C63.4367 51.6402 65.0383 51.4119 66.2385 51.4399C67.4387 51.4679 67.7541 52.2238 67.7541 52.7457V54.6218V54.6215Z" fill="#6F6C8F"/>
</g>
</g>
<defs>
<clipPath id="bgblur_0_171_962_clip_path" transform="translate(9.85184 9.85184)"><rect width="178" height="102" rx="13.9737"/>
</clipPath><clipPath id="clip1_171_962">
<rect width="100.145" height="29.1118" fill="white" transform="translate(38.9276 36.4443)"/>
</clipPath>
</defs>
</svg>
